<?xml version="1.0" encoding="utf-8"?>
<!-- Generator: Adobe Illustrator 23.0.3, SVG Export Plug-In . SVG Version: 6.00 Build 0)  -->
<svg version="1.1" id="Layer_1" xmlns="http://www.w3.org/2000/svg" xmlns:xlink="http://www.w3.org/1999/xlink" x="0px" y="0px"
	 viewBox="0 0 1080 1080" style="enable-background:new 0 0 1080 1080;" xml:space="preserve">
<style type="text/css">
	.st0{fill:none;stroke:#F3F3F5;stroke-width:18.8492;stroke-linecap:round;stroke-miterlimit:10;}
	.st1{fill:#F3F3F5;}
</style>
<g>
	<g>
		<path d="M540,990.29c0,0-308-33.38-308-252.19c0-98.41,0-304.09,0-304.09c0-169.4,138.6-308,308-308h0c169.4,0,308,138.6,308,308
			c0,0,0,151.33,0,304.09C848,956.91,540,990.29,540,990.29z"/>
	</g>
	<path class="st0" d="M651.54,176.63c66.73,28.26,120.82,81.03,150.8,146.86"/>
	<path class="st0" d="M599.04,160.15c6.56,1.38,13.05,2.99,19.44,4.81"/>
	<g>
		<path class="st1" d="M597.11,638.74c-0.82,2.83-2.06,5.45-3.47,7.93c-1.39,2.51-3.01,4.85-4.75,7.12
			c-3.52,4.49-7.68,8.52-12.39,11.99c-4.68,3.51-10.06,6.27-15.82,8.36c-1.46,0.49-2.94,0.93-4.42,1.37
			c-0.73,0.25-1.52,0.36-2.28,0.52l-2.31,0.45c-0.77,0.15-1.55,0.28-2.32,0.41c-0.78,0.11-1.58,0.15-2.38,0.22
			c-1.59,0.11-3.19,0.2-4.78,0.28l-4.78-0.27c-0.79-0.07-1.6-0.11-2.38-0.22l-2.33-0.4c-1.54-0.32-3.11-0.54-4.6-0.97
			c-1.48-0.45-2.97-0.88-4.43-1.37c-5.76-2.1-11.14-4.84-15.83-8.35c-4.71-3.47-8.87-7.5-12.39-11.99
			c-1.74-2.28-3.36-4.61-4.75-7.13c-1.4-2.48-2.64-5.11-3.46-7.95c5.58,1.74,10.57,3.5,15.48,5.1c4.88,1.61,9.57,3.06,14.09,4.34
			c4.52,1.31,8.91,2.2,13.12,2.97c1.06,0.13,2.1,0.31,3.14,0.48c1.04,0.15,2.06,0.18,3.08,0.3l1.52,0.18c0.51,0.04,1,0.01,1.51,0.03
			c1,0.04,2,0.07,2.99,0.14c1-0.05,1.99-0.11,2.99-0.13c0.5-0.01,1,0.02,1.51-0.03c0.51-0.06,1.01-0.13,1.52-0.17
			c1.02-0.11,2.04-0.15,3.08-0.29c1.04-0.17,2.08-0.35,3.14-0.47l0.8-0.1l0.79-0.18l1.61-0.32c1.07-0.22,2.17-0.36,3.25-0.68
			l3.32-0.77c1.11-0.31,2.22-0.63,3.37-0.91c4.52-1.28,9.21-2.73,14.09-4.34C586.55,642.26,591.54,640.49,597.11,638.74z"/>
	</g>
	<path class="st1" d="M543.28,597.99c0,0,41.34-8.38,126.69,30.58c100.48,45.87,135.43,17.47,135.43-30.58c0-37.67,0-91.74,0-137.61
		c0-64.51-43.69-159.45-146.35-159.45c-52.47,0-114.68,32.9-114.68,32.9h-2.18c0,0-62.21-32.9-114.68-32.9
		c-102.66,0-146.35,94.94-146.35,159.45c0,45.92,0,99.88,0,137.61c0,48.05,34.95,76.45,135.43,30.58
		C501.94,589.6,543.28,597.99,543.28,597.99z"/>
	<ellipse cx="542.18" cy="530.97" rx="56.02" ry="36.91"/>
	<path class="st1" d="M542.18,505.77c-16.73,0-30.94,7.08-36.12,16.95c-1.45,2.76,0.7,6.07,3.82,6.07h64.61
		c3.12,0,5.27-3.31,3.82-6.07C573.13,512.86,558.92,505.77,542.18,505.77z"/>
	<g>
		<ellipse cx="404.14" cy="505.77" rx="24.33" ry="57.74"/>
	</g>
	<g>
		<ellipse cx="680.32" cy="505.77" rx="24.24" ry="58.43"/>
	</g>
	<g>
		<path d="M680.32,372.37c22.18,0,41.21,13.3,49.66,32.35c1.38,3.12-1.59,6.43-4.82,5.32c-10.56-3.63-29.95-9.51-44.69-9.51
			c-14.78,0-34.38,5.91-45.01,9.54c-3.23,1.1-6.2-2.2-4.82-5.32C639.09,385.68,658.13,372.37,680.32,372.37z"/>
	</g>
	<g>
		<path d="M404.15,372.37c22.18,0,41.21,13.3,49.66,32.35c1.38,3.12-1.59,6.43-4.82,5.32c-10.56-3.63-29.95-9.51-44.69-9.51
			c-14.78,0-34.38,5.91-45.01,9.54c-3.23,1.1-6.2-2.2-4.82-5.32C362.92,385.68,381.96,372.37,404.15,372.37z"/>
	</g>
	<circle class="st1" cx="424.95" cy="476.35" r="13.41"/>
	<circle class="st1" cx="704.54" cy="476.35" r="13.41"/>
	<g>
		<g>
			<path d="M418.01,157.21c-13.21-15.45-31.53-20.66-28.85-21.79c14.51-6.15,33.43-4.2,47.99,3.06c3.28-18.51,11.2-36.15,23.49-48.5
				c2.25-2.25,1.76,10.63,5.67,28.45c8.04-10.84,21.47-19.28,34.4-19.71c2.48-0.09-10.67,11.39-14.27,29.2
				c0,0,0.83,17.09-27.35,29.03C430.93,168.88,418.01,157.21,418.01,157.21z"/>
		</g>
	</g>
</g>
</svg>
