<?xml version="1.0" encoding="utf-8"?>
<!-- Generator: Adobe Illustrator 27.2.0, SVG Export Plug-In . SVG Version: 6.00 Build 0)  -->
<svg version="1.1" id="Layer_1" xmlns="http://www.w3.org/2000/svg" xmlns:xlink="http://www.w3.org/1999/xlink" x="0px" y="0px"
	 viewBox="0 0 641.4 919.3" style="enable-background:new 0 0 641.4 919.3;" xml:space="preserve">
<style type="text/css">
	.st0{fill:none;stroke:#F3F3F5;stroke-width:18.8492;stroke-linecap:round;stroke-miterlimit:10;}
	.st1{fill:#F3F3F5;}
</style>
<g>
	<g>
		<path d="M320.7,909.9c0,0-308-33.4-308-252.2c0-98.4,0-304.1,0-304.1c0-169.4,138.6-308,308-308l0,0c169.4,0,308,138.6,308,308
			c0,0,0,151.3,0,304.1C628.7,876.5,320.7,909.9,320.7,909.9z"/>
	</g>
	<path class="st0" d="M432.2,96.3c66.7,28.3,120.8,81,150.8,146.9"/>
	<path class="st0" d="M379.7,79.8c6.6,1.4,13,3,19.4,4.8"/>
	<g>
		<path class="st1" d="M377.8,558.4c-0.8,2.8-2.1,5.5-3.5,7.9c-1.4,2.5-3,4.8-4.8,7.1c-3.5,4.5-7.7,8.5-12.4,12
			c-4.7,3.5-10.1,6.3-15.8,8.4c-1.5,0.5-2.9,0.9-4.4,1.4c-0.7,0.2-1.5,0.4-2.3,0.5l-2.3,0.5c-0.8,0.2-1.5,0.3-2.3,0.4
			c-0.8,0.1-1.6,0.2-2.4,0.2c-1.6,0.1-3.2,0.2-4.8,0.3l-4.8-0.3c-0.8-0.1-1.6-0.1-2.4-0.2l-2.3-0.4c-1.5-0.3-3.1-0.5-4.6-1
			c-1.5-0.5-3-0.9-4.4-1.4c-5.8-2.1-11.1-4.8-15.8-8.3c-4.7-3.5-8.9-7.5-12.4-12c-1.7-2.3-3.4-4.6-4.8-7.1c-1.4-2.5-2.6-5.1-3.5-8
			c5.6,1.7,10.6,3.5,15.5,5.1c4.9,1.6,9.6,3.1,14.1,4.3c4.5,1.3,8.9,2.2,13.1,3c1.1,0.1,2.1,0.3,3.1,0.5c1,0.2,2.1,0.2,3.1,0.3
			l1.5,0.2c0.5,0,1,0,1.5,0c1,0,2,0.1,3,0.1c1,0,2-0.1,3-0.1c0.5,0,1,0,1.5,0c0.5-0.1,1-0.1,1.5-0.2c1-0.1,2-0.2,3.1-0.3
			c1-0.2,2.1-0.3,3.1-0.5l0.8-0.1l0.8-0.2l1.6-0.3c1.1-0.2,2.2-0.4,3.2-0.7l3.3-0.8c1.1-0.3,2.2-0.6,3.4-0.9
			c4.5-1.3,9.2-2.7,14.1-4.3C367.2,561.9,372.2,560.1,377.8,558.4z"/>
	</g>
	<path class="st1" d="M324,517.6c0,0,41.3-8.4,126.7,30.6c100.5,45.9,135.4,17.5,135.4-30.6c0-37.7,0-91.7,0-137.6
		c0-64.5-43.7-159.5-146.3-159.5c-52.5,0-114.7,32.9-114.7,32.9h-2.2c0,0-62.2-32.9-114.7-32.9c-102.7,0-146.4,94.9-146.4,159.5
		c0,45.9,0,99.9,0,137.6c0,48,35,76.5,135.4,30.6C282.6,509.2,324,517.6,324,517.6z"/>
	<ellipse cx="322.9" cy="450.6" rx="56" ry="36.9"/>
	<path class="st1" d="M322.9,425.4c-16.7,0-30.9,7.1-36.1,16.9c-1.5,2.8,0.7,6.1,3.8,6.1h64.6c3.1,0,5.3-3.3,3.8-6.1
		C353.8,432.5,339.6,425.4,322.9,425.4z"/>
	<g>
		<ellipse cx="184.8" cy="425.4" rx="24.3" ry="57.7"/>
	</g>
	<g>
		<ellipse cx="461" cy="425.4" rx="24.2" ry="58.4"/>
	</g>
	<g>
		<path d="M461,292c22.2,0,41.2,13.3,49.7,32.4c1.4,3.1-1.6,6.4-4.8,5.3c-10.6-3.6-30-9.5-44.7-9.5c-14.8,0-34.4,5.9-45,9.5
			c-3.2,1.1-6.2-2.2-4.8-5.3C419.8,305.3,438.8,292,461,292z"/>
	</g>
	<g>
		<path d="M184.8,292c22.2,0,41.2,13.3,49.7,32.4c1.4,3.1-1.6,6.4-4.8,5.3c-10.6-3.6-30-9.5-44.7-9.5c-14.8,0-34.4,5.9-45,9.5
			c-3.2,1.1-6.2-2.2-4.8-5.3C143.6,305.3,162.7,292,184.8,292z"/>
	</g>
	<circle class="st1" cx="205.6" cy="396" r="13.4"/>
	<circle class="st1" cx="485.2" cy="396" r="13.4"/>
	<g>
		<g>
			<path d="M198.7,76.8c-13.2-15.4-31.5-20.7-28.9-21.8c14.5-6.1,33.4-4.2,48,3.1C221.1,39.6,229,22,241.3,9.6
				c2.2-2.2,1.8,10.6,5.7,28.4c8-10.8,21.5-19.3,34.4-19.7c2.5-0.1-10.7,11.4-14.3,29.2c0,0,0.8,17.1-27.4,29
				C211.6,88.5,198.7,76.8,198.7,76.8z"/>
		</g>
	</g>
</g>
</svg>
