<?xml version="1.0" encoding="utf-8"?>
<!-- Generator: Adobe Illustrator 24.0.0, SVG Export Plug-In . SVG Version: 6.00 Build 0)  -->
<svg version="1.1" id="Layer_1" xmlns="http://www.w3.org/2000/svg" xmlns:xlink="http://www.w3.org/1999/xlink" x="0px" y="0px"
	 viewBox="0 0 36 30" style="enable-background:new 0 0 36 30;" xml:space="preserve">
<style type="text/css">
	.st0{fill:#FFFFFF;stroke:#000000;stroke-width:1.75;stroke-linecap:round;stroke-linejoin:round;}
	.st1{fill:#FFFFFF;stroke:#000000;stroke-linecap:round;stroke-linejoin:round;stroke-miterlimit:10;}
</style>
<path class="st0" d="M12.5,5.8h11.1c6.1,0,11.1,5,11.1,11.1v0c0,6.1-5,11.1-11.1,11.1H12.5"/>
<circle class="st0" cx="12.4" cy="16.9" r="11.1"/>
<g>
	<g>
		<path class="st0" d="M43.3-1.6l14.3,15.2l7.4,7.4L60.9,25c-0.7,0.7-1.7,0.7-2.4,0l-6.2-6.2l-4.5,4.5c-0.9,0.9-2.5,0.5-2.8-0.8
			L39.8,3c-0.2-0.6,0-1.2,0.4-1.6L43.3-1.6z"/>
	</g>
	<g>
		<g>
			<path class="st0" d="M65.1,6l-3.3,3.3c-0.7,0.7-0.7,1.7,0,2.4l5,5c0.7,0.7,0.7,1.7,0,2.4l-2.9,2.9c-0.7,0.7-1.7,0.7-2.4,0l-5-5
				c-0.7-0.7-1.7-0.7-2.4,0l-3.3,3.3c-0.9,0.9-2.5,0.5-2.8-0.8L42.8,0c-0.3-1.2,0.8-2.4,2.1-2.1l19.5,5.2C65.6,3.5,66,5,65.1,6z"/>
		</g>
	</g>
</g>
<g>
	<path class="st0" d="M35.9-19.4l-3.7,3.7c-0.3,0.3-0.7,0.4-1.1,0.4H4.5c-0.8,0-1.5-0.7-1.5-1.5v-15.4c0-0.4,0.2-0.8,0.4-1.1
		l3.5-3.5"/>
</g>
<g>
	<path class="st0" d="M35-19.2H8.4c-0.8,0-1.5-0.7-1.5-1.5v-15.5c0-0.8,0.7-1.5,1.5-1.5H35c0.8,0,1.5,0.7,1.5,1.5v15.5
		C36.5-19.8,35.9-19.2,35-19.2z"/>
</g>
<line class="st0" x1="6.9" y1="-19.2" x2="3.9" y2="-16.1"/>
<polyline class="st0" points="19.5,-32.9 23.6,-28.8 19.5,-24.7 "/>
<path class="st1" d="M-36.4,32.8h-15.7c-4.9,0-8.9-4-8.9-8.9v0c0-4.9,4-8.9,8.9-8.9h15.7c4.9,0,8.9,4,8.9,8.9v0
	C-27.5,28.8-31.5,32.8-36.4,32.8z"/>
<circle class="st1" cx="-52.1" cy="23.8" r="8.9"/>
</svg>
